<?xml version="1.0" standalone="no"?>
<!DOCTYPE svg PUBLIC "-//W3C//DTD SVG 20010904//EN"
 "http://www.w3.org/TR/2001/REC-SVG-20010904/DTD/svg10.dtd">
<svg version="1.0" xmlns="http://www.w3.org/2000/svg"
 width="360.000000pt" height="360.000000pt" viewBox="0 0 360.000000 360.000000"
 preserveAspectRatio="xMidYMid meet">
<metadata>
Created by potrace 1.14, written by Peter Selinger 2001-2017
</metadata>
<g transform="translate(0.000000,360.000000) scale(0.100000,-0.100000)"
fill="#000000" stroke="none">
<path d="M1450 3450 c0 -6 -37 -10 -90 -10 -53 0 -90 -4 -90 -10 0 -6 -27 -10
-60 -10 -33 0 -60 -4 -60 -10 0 -5 -22 -10 -50 -10 -27 0 -50 -4 -50 -10 0 -5
-22 -10 -50 -10 -27 0 -50 -4 -50 -10 0 -5 -18 -10 -40 -10 -22 0 -40 -4 -40
-10 0 -5 -18 -10 -40 -10 -22 0 -40 -4 -40 -10 0 -5 -18 -10 -40 -10 -22 0
-40 -4 -40 -10 0 -5 -13 -10 -30 -10 -16 0 -30 -4 -30 -10 0 -5 -13 -10 -30
-10 -16 0 -30 -4 -30 -10 0 -5 -18 -10 -40 -10 -22 0 -40 -3 -40 -7 0 -5 -26
-9 -57 -10 -32 -1 -59 -7 -61 -13 -2 -5 -11 -10 -21 -10 -9 0 -23 -9 -31 -20
-8 -11 -20 -20 -27 -20 -19 0 -123 -106 -123 -125 0 -8 -4 -15 -10 -15 -5 0
-10 -9 -10 -20 0 -11 -4 -20 -10 -20 -6 0 -10 -67 -10 -180 0 -113 4 -180 10
-180 6 0 10 -9 10 -20 0 -11 5 -20 10 -20 6 0 10 -8 10 -18 0 -10 9 -24 20
-32 11 -8 20 -25 20 -38 0 -14 16 -38 40 -62 22 -21 40 -41 40 -44 0 -3 -25
-6 -56 -6 -81 0 -84 -6 -84 -149 l0 -121 65 -65 c45 -46 72 -65 90 -65 14 0
25 -4 25 -10 0 -6 37 -10 90 -10 53 0 90 -4 90 -10 0 -5 14 -10 30 -10 17 0
30 -4 30 -10 0 -5 -9 -10 -20 -10 -11 0 -20 -4 -20 -10 0 -5 -9 -10 -20 -10
-11 0 -20 -4 -20 -10 0 -5 -8 -10 -18 -10 -10 0 -24 -9 -32 -20 -8 -11 -21
-20 -30 -20 -9 0 -22 -9 -30 -20 -8 -11 -21 -20 -30 -20 -9 0 -22 -9 -30 -20
-8 -11 -20 -20 -27 -20 -19 0 -123 -106 -123 -125 0 -8 -4 -15 -10 -15 -5 0
-10 -9 -10 -20 0 -11 -4 -20 -10 -20 -6 0 -10 -87 -10 -240 0 -153 4 -240 10
-240 6 0 10 -13 10 -30 0 -16 5 -30 10 -30 6 0 10 -13 10 -28 0 -16 8 -34 20
-42 11 -8 20 -21 20 -30 0 -9 9 -22 20 -30 11 -8 20 -20 20 -27 0 -16 85 -103
100 -103 6 0 33 -22 60 -50 27 -27 55 -50 62 -50 8 0 20 -9 28 -20 8 -11 22
-20 32 -20 10 0 18 -4 18 -10 0 -5 7 -10 15 -10 25 0 65 -46 65 -75 0 -14 5
-25 10 -25 6 0 10 -9 10 -20 0 -11 5 -20 10 -20 6 0 10 -8 10 -18 0 -10 9 -24
20 -32 11 -8 20 -20 20 -27 0 -16 145 -163 161 -163 6 0 24 -13 39 -30 15 -16
34 -30 42 -30 7 0 20 -9 28 -20 8 -11 22 -20 32 -20 10 0 18 -4 18 -10 0 -5 9
-10 20 -10 11 0 20 -4 20 -10 0 -5 9 -10 20 -10 11 0 20 -4 20 -10 0 -5 9 -10
20 -10 11 0 20 -4 20 -10 0 -5 14 -10 30 -10 17 0 30 -4 30 -10 0 -5 9 -10 20
-10 11 0 20 -4 20 -10 0 -5 23 -10 50 -10 28 0 50 -4 50 -10 0 -5 23 -10 50
-10 28 0 50 -4 50 -10 0 -6 43 -10 110 -10 67 0 110 4 110 10 0 6 7 10 15 10
20 0 145 125 145 145 0 8 5 15 10 15 6 0 10 9 10 20 0 11 5 20 10 20 6 0 10
18 10 40 0 22 5 40 10 40 6 0 10 70 10 190 0 105 3 190 6 190 3 0 27 -22 54
-50 27 -27 56 -50 64 -50 9 0 16 -4 16 -10 0 -5 9 -10 20 -10 11 0 20 -4 20
-10 0 -5 14 -10 30 -10 17 0 30 -4 30 -10 0 -5 9 -10 20 -10 11 0 20 -4 20
-10 0 -6 80 -10 220 -10 140 0 220 4 220 10 0 6 23 10 50 10 28 0 50 5 50 10
0 6 14 10 30 10 17 0 30 5 30 10 0 6 14 10 30 10 17 0 30 5 30 10 0 6 9 10 20
10 11 0 20 5 20 10 0 6 9 10 20 10 11 0 20 5 20 10 0 6 8 10 18 10 10 0 24 9
32 20 8 11 20 20 27 20 17 0 123 106 123 123 0 7 9 19 20 27 11 8 20 22 20 32
0 10 5 18 10 18 6 0 10 67 10 180 0 113 -4 180 -10 180 -5 0 -10 14 -10 30 0
17 -4 30 -10 30 -5 0 -10 8 -10 18 0 10 -9 24 -20 32 -11 8 -20 21 -20 28 0 7
-18 31 -41 53 -36 35 -39 41 -25 54 8 8 21 15 28 15 8 0 20 9 28 20 8 11 20
20 27 20 17 0 203 186 203 203 0 7 9 19 20 27 11 8 20 22 20 32 0 10 5 18 10
18 6 0 10 9 10 20 0 11 5 20 10 20 6 0 10 14 10 30 0 17 5 30 10 30 6 0 10 14
10 30 0 17 5 30 10 30 6 0 10 73 10 200 0 127 -4 200 -10 200 -5 0 -10 18 -10
40 0 22 -4 40 -10 40 -5 0 -10 9 -10 20 0 11 -4 20 -10 20 -5 0 -10 14 -10 30
0 17 -4 30 -10 30 -5 0 -10 9 -10 20 0 11 -4 20 -10 20 -5 0 -10 8 -10 18 0
10 -9 24 -20 32 -11 8 -20 21 -20 30 0 9 -9 22 -20 30 -11 8 -20 21 -20 30 0
9 -9 22 -20 30 -11 8 -20 20 -20 27 0 16 -285 303 -301 303 -6 0 -24 14 -39
30 -15 17 -34 30 -42 30 -7 0 -20 9 -28 20 -8 11 -21 20 -30 20 -9 0 -22 9
-30 20 -8 11 -22 20 -32 20 -10 0 -18 5 -18 10 0 6 -9 10 -20 10 -11 0 -20 5
-20 10 0 6 -9 10 -20 10 -11 0 -20 5 -20 10 0 6 -9 10 -20 10 -11 0 -20 5 -20
10 0 6 -13 10 -30 10 -16 0 -30 5 -30 10 0 6 -13 10 -30 10 -16 0 -30 5 -30
10 0 6 -9 10 -20 10 -11 0 -20 5 -20 10 0 6 -18 10 -40 10 -22 0 -40 5 -40 10
0 6 -13 10 -30 10 -16 0 -30 5 -30 10 0 6 -18 10 -40 10 -22 0 -40 5 -40 10 0
6 -22 10 -50 10 -27 0 -50 5 -50 10 0 6 -27 10 -60 10 -33 0 -60 4 -60 10 0 6
-97 10 -270 10 -173 0 -270 -4 -270 -10z"/>
</g>
</svg>
